PathFileType	4	(X/Y/Z)	./resultDataOpenSim/trcMotMarkerGrf/sub10/qtm-14-08.trc
DataRate	CameraRate	NumFrames	NumMarkers	Units	OrigDataRate	OrigDataStartFrame	OrigNumFrames
250.000000	250.000000	5	24	m	250.000000	254	507
Frame#	Time	L.Toe.Tip			R.Toe.Tip			L.Ankle.Lat			R.Ankle.Lat			L.Ankle.Med			R.Ankle.Med			L.Heel			R.Heel			L.Knee.Lat			R.Knee.Lat			L.Knee.Med			R.Knee.Med			L.Thigh.Upper			R.Thigh.Upper			L.ASIS			R.ASIS			V.Sacral			L.Acromium			R.Acromium			C7			L.Elbow			R.Elbow			L.Wrist.Lat			R.Wrist.Lat
		X1	Y1	Z1	X2	Y2	Z2	X3	Y3	Z3	X4	Y4	Z4	X5	Y5	Z5	X6	Y6	Z6	X7	Y7	Z7	X8	Y8	Z8	X9	Y9	Z9	X10	Y10	Z10	X11	Y11	Z11	X12	Y12	Z12	X13	Y13	Z13	X14	Y14	Z14	X15	Y15	Z15	X16	Y16	Z16	X17	Y17	Z17	X18	Y18	Z18	X19	Y19	Z19	X20	Y20	Z20	X21	Y21	Z21	X22	Y22	Z22	X23	Y23	Z23	X24	Y24	Z24

254	1.012	0.067396308	-0.033757998	-0.0595722	0.34925846	0.10061017	0.09601912	-0.06003697	0.0039658397	-0.079437546	0.21955808	0.15847365	0.102195	-0.039518564	0.025238552	0.0040361246	0.26046814	0.163675	0.019811233	-0.12999458	-0.0081094115	-0.03279769	0.17064328	0.13964886	0.050370838	0.15113326	0.32195714	-0.13139221	0.40703762	0.48958967	0.10321421	0.16221461	0.30624544	-0.0092895903	0.4285877	0.49936853	-0.030171659	0.098963365	0.70561835	-0.21395757	0.11058571	0.73038391	0.16579439	0.15538876	0.81123508	-0.15004343	0.16768693	0.81609459	0.08973528	-0.040141969	0.83720105	-0.020508931	0.14496333	1.2876762	-0.19090678	0.098654823	1.2996407	0.12632558	0.040059692	1.3178767	-0.048968274	0.075782527	0.96926245	-0.31200851	-0.024106511	0.99657919	0.25146865	0.26193949	0.84391651	-0.44930055	0.047344278	0.88202313	0.45753481
255	1.016	0.067327768	-0.033738614	-0.059569461	0.36990239	0.099285288	0.093836801	-0.059796261	0.0045144845	-0.079350764	0.23832652	0.15289134	0.10088046	-0.039069026	0.025704233	0.0040265033	0.27870984	0.15981707	0.018417001	-0.12974781	-0.0071787491	-0.032671998	0.18998771	0.13271648	0.04912655	0.15281817	0.32135276	-0.13176071	0.41499992	0.49145965	0.10179656	0.16420492	0.30582861	-0.0097578709	0.43504506	0.50162879	-0.031184506	0.10364915	0.70597836	-0.21401362	0.1183836	0.73098192	0.16614333	0.15999136	0.81148203	-0.1510948	0.17441387	0.81626281	0.089204845	-0.03390944	0.83759221	-0.018160867	0.15104847	1.2883005	-0.19109786	0.10511431	1.3001855	0.12591781	0.046167672	1.3183773	-0.049170383	0.085608578	0.96992427	-0.31461826	-0.019605624	0.99851158	0.251504	0.27228109	0.84838723	-0.45139034	0.047036867	0.88444737	0.4592598
256	1.02	0.067326762	-0.033706874	-0.059621695	0.39049478	0.098046537	0.091582425	-0.059546792	0.0050663619	-0.079272346	0.25717946	0.1474166	0.099420593	-0.038560574	0.026209217	0.0040880291	0.29705066	0.15606248	0.016921981	-0.12950262	-0.0062534058	-0.032555828	0.20935967	0.1259723	0.047794603	0.15443638	0.32080281	-0.13209842	0.42262843	0.49304053	0.10049631	0.16637143	0.30532106	-0.010350582	0.44133104	0.5035927	-0.032069391	0.10821023	0.70636476	-0.21402132	0.12615834	0.73164834	0.16650472	0.16454977	0.81182495	-0.15217843	0.18113306	0.81651348	0.088749431	-0.02791245	0.83810752	-0.016348362	0.15720647	1.2889837	-0.19128377	0.11159313	1.3008011	0.12551784	0.052289627	1.3189493	-0.049372856	0.094526783	0.97068275	-0.31680862	-0.015030103	1.0004934	0.25143111	0.28252009	0.85291825	-0.45333055	0.046785801	0.88693904	0.46078741
257	1.024	0.067382133	-0.033680077	-0.059704965	0.41100328	0.096906678	0.089260975	-0.059290573	0.0056261988	-0.079202414	0.27610998	0.14205213	0.097849978	-0.038063411	0.026717375	0.0041455167	0.31547297	0.15242138	0.015339805	-0.12925396	-0.0053269291	-0.032441019	0.22884259	0.11938633	0.046314605	0.15598347	0.32030706	-0.13240999	0.4299438	0.49431261	0.099338056	0.1685222	0.30475424	-0.010934596	0.44742853	0.50525892	-0.032814538	0.11265285	0.70677865	-0.21400996	0.13390795	0.7324147	0.16688933	0.16909736	0.81226949	-0.15327274	0.18785797	0.81686325	0.088367064	-0.022122188	0.83870211	-0.015037625	0.16340876	1.2897349	-0.19144708	0.11808323	1.3014821	0.12511434	0.058435712	1.3195871	-0.049566993	0.102705	0.9714812	-0.31887251	-0.010530605	1.0026019	0.25134338	0.29265385	0.85750549	-0.45512091	0.046612548	0.88949268	0.46213153
258	1.028	0.067446323	-0.033668595	-0.059778879	0.43140979	0.095879065	0.086871265	-0.059029234	0.0061927974	-0.079139924	0.29510274	0.13682465	0.096197186	-0.037619075	0.027217576	0.0041641902	0.3339404	0.14889326	0.013700423	-0.12899725	-0.0043931601	-0.032319658	0.2484557	0.11295936	0.04464688	0.1574574	0.31986664	-0.13270105	0.43702695	0.49528983	0.098314818	0.17044779	0.30420849	-0.011418311	0.45335631	0.50663073	-0.033430496	0.11701156	0.70722502	-0.21400877	0.14162204	0.7333087	0.16729397	0.17366645	0.81280763	-0.15435727	0.19460633	0.81732366	0.088056374	-0.016480852	0.839367	-0.014157398	0.16960501	1.2905587	-0.1915763	0.1245646	1.3022249	0.12470165	0.064610243	1.3202802	-0.049744	0.11051698	0.97229607	-0.32128083	-0.006254944	1.0048942	0.25132136	0.30268088	0.86214904	-0.4567647	0.046534914	0.89210197	0.46330448
